<?xml version="1.0" encoding="UTF-8"?><svg id="Justert_versjon" xmlns="http://www.w3.org/2000/svg" viewBox="0 0 609.7 351.69"><defs><style>.cls-1{fill:#ec6807;}</style></defs><path class="cls-1" d="M312.97,319.31c0,7.88,7,6.71,7,15.17,0,9.63-16.04,17.21-36.75,17.21-2.04,0-13.12-.29-13.12-15.46,0-22.17,28.29-102.37,28.29-108.5,0-2.04-1.17-2.62-2.33-2.62-5.83,7-49,23.92-67.08,23.92-14.58,0-18.96-7.87-18.96-17.79,0-14.87,9.63-34.71,9.63-40.25,0-3.21-1.17-5.83-4.08-7-11.38,.29-17.79,7-28.29,7-4.37,0-7.29-4.08-7.29-9.92,0-12.54,14-32.37,56.58-32.37,9.04,0,19.54,2.04,19.54,13.13,0,9.92-7.58,23.63-7.58,34.12,0,7,4.67,12.25,12.54,12.25,20.13,0,48.13-30.04,50.75-33.25,3.21-3.5,13.13-4.37,20.42-4.37,6.71,0,19.83,.29,19.83,9.33,0,13.71-39.08,113.17-39.08,139.42Z"/><path class="cls-1" d="M393.39,260.62c-17.21,0-33.54-8.75-33.54-31.5,0-15.46,5.54-49.58,14-62.42,5.83-3.21,23.63-8.17,30.04-8.17,4.08,0,6.12,2.62,6.12,5.25,0,4.67-12.25,30.92-12.25,42.88,0,10.79,4.96,20.42,16.92,20.42s9.63-6.13,18.08-6.13c3.79,0,8.17,1.17,9.63,6.71,0,17.79-26.25,32.96-49,32.96Zm-2.04-130.38s-10.79,0-10.79-6.71c.87-5.25,5.83-20.42,10.21-29.17,2.92-5.54,8.75-7.29,15.46-7.29,6.13,0,18.38,.87,18.38,8.75,0,7.29-4.38,32.67-33.25,34.42Z"/><path class="cls-1" d="M544.07,255.95c-18.08,0-18.96-11.09-18.96-32.67,0-4.08-.87-7-6.12-7-6.13,0-41.42,32.67-45.5,36.17-1.75,1.46-5.83,4.08-11.38,4.08-5.83,0-13.71-2.92-13.71-9.92,0-9.04,13.13-32.67,13.13-45.5,0-6.12-3.5-11.08-11.96-11.08-6.71,0-13.42,4.67-18.08,4.67-5.25,0-7.88-5.54-7.88-10.79,0,0,0-25.08,42-25.08,18.08,0,23.04,7.29,23.04,15.75,0,9.62-5.83,20.71-6.12,25.08,0,1.46,.87,2.62,2.33,2.62,4.67,0,38.21-26.83,59.79-26.83,10.21,0,20.13,2.62,20.13,14,0,10.79-5.25,16.62-5.25,26.25,0,3.21,.58,9.33,7.58,9.33,12.25,0,30.92-11.96,36.75-11.96,3.79,0,5.83,3.21,5.83,7.29,0,14.29-38.21,35.58-65.63,35.58Z"/><polygon class="cls-1" points="99.93 344.77 105.94 344.77 105.94 326.35 123.56 326.35 123.56 320.79 105.94 320.79 105.94 308.1 127.49 308.1 127.49 302.43 99.93 302.43 99.93 344.77"/><rect class="cls-1" x="145.35" y="302.43" width="6.01" height="42.33"/><polygon class="cls-1" points="177.22 302.43 171.22 302.43 171.22 344.77 198.25 344.77 198.25 339.1 177.22 339.1 177.22 302.43"/><polygon class="cls-1" points="222.41 325.72 241.96 325.72 241.96 320.23 222.41 320.23 222.41 308.1 243.67 308.1 243.67 302.43 216.4 302.43 216.4 344.77 244.24 344.77 244.24 339.1 222.41 339.1 222.41 325.72"/><polygon class="cls-1" points="347.95 344.77 353.95 344.77 353.95 326.35 371.58 326.35 371.58 320.79 353.95 320.79 353.95 308.1 375.5 308.1 375.5 302.43 347.95 302.43 347.95 344.77"/><path class="cls-1" d="M419.8,328.32c0,7.32-3.63,11.35-10.22,11.35s-10.16-4.08-10.16-11.18v-1.27h-6.06v1.27c0,10.39,6.22,16.84,16.22,16.84s16.28-6.46,16.28-16.84v-26.05h-6.06v25.88Z"/><polygon class="cls-1" points="451.38 325.72 470.94 325.72 470.94 320.23 451.38 320.23 451.38 308.1 472.64 308.1 472.64 302.43 445.37 302.43 445.37 344.77 473.21 344.77 473.21 339.1 451.38 339.1 451.38 325.72"/><polygon class="cls-1" points="497.31 302.43 491.31 302.43 491.31 344.77 518.34 344.77 518.34 339.1 497.31 339.1 497.31 302.43"/><polygon class="cls-1" points="542.5 339.1 542.5 302.43 536.49 302.43 536.49 344.77 563.54 344.77 563.54 339.1 542.5 339.1"/><path class="cls-1" d="M198.04,66.5c-22.46,60.38-28.29,126.88-57.75,193.09-3.79,5.83-9.04,8.75-12.54,8.75-13.13,0-35.88-2.04-35.88-12.83,0-2.33,1.75-4.08,3.21-5.54,28-21.58,64.17-174.71,64.17-174.71-60.67,13.42-121.63,24.21-121.63,43.17,0,9.04,19.54,10.5,26.54,10.5,11.08,0,15.84-2.56,25.21-2.37,5.31,.11,8.03,6.19,7.75,10.96-.64,10.77-20.13,17.66-55.42,17.66C14.87,155.17,0,137.08,0,116.96c0-47.83,42.29-48.71,177.33-74.38,0,0,.58,0,.87,.29C194.84,20.71,214.09,0,245.59,0c13.71,0,21.87,7.58,21.87,18.08,0,16.04-19.54,38.21-69.42,48.42Z"/></svg>